# xmcd
#
# Track frame offsets: 
#        150
#        16571
#        32111
#        45873
#        65036
#        86374
#        100030
#
# Disc length: 1654 seconds
#
# Revision: 0
# Processed by: cddbd v1.5.2PL0 Copyright (c) Steve Scherf et al.
# Submitted via: ExactAudioCopy v0.95b4
#
DISCID=43067407
DTITLE=Samantha Jo - Samantha Jo
DYEAR=2006
DGENRE=Country
TTITLE0=That's My Way
TTITLE1=Heart Over Head Over Heels
TTITLE2=He's Always There
TTITLE3=These Days
TTITLE4=Look What Love Has Done to Me
TTITLE5=Time for Summer
TTITLE6=Ruby Red Earings
EXTD=
EXTT0=
EXTT1=
EXTT2=
EXTT3=
EXTT4=
EXTT5=
EXTT6=
PLAYORDER=
